<svg width="24" height="24" viewBox="0 0 24 24" fill="none" xmlns="http://www.w3.org/2000/svg">
<path fill-rule="evenodd" clip-rule="evenodd" d="M12 3C9.23858 3 7 5.23858 7 8C7 10.7614 9.23858 13 12 13C14.7614 13 17 10.7614 17 8C17 5.23858 14.7614 3 12 3ZM9 8C9 6.34315 10.3431 5 12 5C13.6569 5 15 6.34315 15 8C15 9.65685 13.6569 11 12 11C10.3431 11 9 9.65685 9 8Z" fill="#0F1729"/>
<path d="M18.2864 4.0419C17.7573 3.8837 17.2001 4.18441 17.0419 4.71355C16.8837 5.2427 17.1844 5.7999 17.7136 5.9581C18.3702 6.15442 19 6.92089 19 8C19 9.07911 18.3702 9.84558 17.7136 10.0419C17.1844 10.2001 16.8837 10.7573 17.0419 11.2864C17.2001 11.8156 17.7573 12.1163 18.2864 11.9581C19.9301 11.4667 21 9.8076 21 8C21 6.1924 19.9301 4.53331 18.2864 4.0419Z" fill="#0F1729"/>
<path fill-rule="evenodd" clip-rule="evenodd" d="M6.64442 14.8986C8.09544 14.2542 10.0062 14 12 14C13.9938 14 15.9046 14.2542 17.3556 14.8986C18.8348 15.5554 20 16.7142 20 18.5C20 18.9667 19.9148 19.4978 19.5973 20.0043C19.2798 20.5106 18.7921 20.8939 18.1622 21.1789C16.9531 21.7259 15.0161 22 12 22C8.98391 22 7.04688 21.7259 5.83781 21.1789C5.20786 20.8939 4.72017 20.5106 4.40272 20.0043C4.08524 19.4978 4 18.9667 4 18.5C4 16.7142 5.16516 15.5554 6.64442 14.8986ZM7.45609 16.7264C6.40184 17.1946 6 17.7858 6 18.5C6 18.7236 6.03976 18.8502 6.09728 18.942C6.15483 19.0338 6.29214 19.1893 6.66219 19.3567C7.45312 19.7145 9.01609 20 12 20C14.9839 20 16.5469 19.7145 17.3378 19.3567C17.7079 19.1893 17.8452 19.0338 17.9027 18.942C17.9602 18.8502 18 18.7236 18 18.5C18 17.7858 17.5982 17.1946 16.5439 16.7264C15.4614 16.2458 13.8722 16 12 16C10.1278 16 8.53857 16.2458 7.45609 16.7264Z" fill="#0F1729"/>
<path d="M20.4445 13.1042C19.9498 12.8587 19.3497 13.0608 19.1042 13.5555C18.8587 14.0502 19.0608 14.6503 19.5555 14.8958C20.525 15.3769 21 16.0458 21 17C21 17.5523 21.4477 18 22 18C22.5523 18 23 17.5523 23 17C23 15.1261 21.9384 13.8456 20.4445 13.1042Z" fill="#0F1729"/>
</svg>
