<svg width="24" height="24" viewBox="0 0 24 24" fill="none" xmlns="http://www.w3.org/2000/svg">
<path d="M8.44868 7.31623C8.62333 6.79228 8.34017 6.22596 7.81623 6.05132C7.29228 5.87667 6.72596 6.15983 6.55132 6.68377C6.15834 7.86271 6.15834 9.13729 6.55132 10.3162C6.72596 10.8402 7.29228 11.1233 7.81623 10.9487C8.34017 10.774 8.62333 10.2077 8.44868 9.68377C8.19255 8.91537 8.19255 8.08463 8.44868 7.31623Z" fill="#0F1729"/>
<path fill-rule="evenodd" clip-rule="evenodd" d="M10 1.41364C5.60944 1.41364 3.00002 4.67876 3 8.12657L3 8.81363C3 9.63731 3.22822 10.7535 3.47829 11.7668C3.71454 12.7241 3.99547 13.6851 4.20017 14.3853L4.25179 14.562C4.68481 16.0458 6.04757 19.6526 6.57233 20.9428C7.13504 22.3264 8.68364 22.974 10.0764 22.6314C11.751 22.2194 12.7892 20.4893 12.1281 18.8413C11.763 17.9311 11.0079 15.923 10.4863 14.4234C10.6197 14.4288 10.7539 14.4315 10.8889 14.4315C12.8588 14.4315 14.6852 13.8569 16.0882 12.8768C16.9121 13.4987 18.0733 13.6591 19.0991 13.0816L20.3443 12.3806C21.3671 11.8048 22 10.7223 22 9.54854V6.38784C22 5.21412 21.3671 4.13158 20.3443 3.55578L19.0991 2.85473C17.9528 2.20942 16.6373 2.48556 15.8124 3.29744C14.1944 2.15558 12.087 1.41364 10 1.41364ZM17 8.95455C17 8.95305 17 8.95159 17 8.95017L17 5.24832C17.002 4.67619 17.6188 4.31654 18.1179 4.59754L19.3632 5.29859C19.7566 5.52005 20 5.93641 20 6.38784V9.54854C20 9.99997 19.7566 10.4163 19.3632 10.6378L18.1179 11.3388C17.618 11.6203 17 11.259 17 10.6853V8.95455ZM15 5.2458V5.18677C13.6675 4.12647 11.7976 3.41364 10 3.41364C6.78133 3.41364 5.00001 5.71479 5 8.12657L5 8.81364C5 9.36719 5.16871 10.2692 5.42004 11.2876C5.64555 12.2015 5.91498 13.1233 6.12083 13.8275L6.1717 14.0016C6.57441 15.3816 7.90433 18.9092 8.42496 20.1894C8.56712 20.5389 9.04512 20.8255 9.59859 20.6893C10.2206 20.5363 10.4326 19.9865 10.2719 19.5859C9.76838 18.3308 8.50607 14.9498 8.11549 13.6114C7.88932 12.8363 8.57289 12.1248 9.33928 12.2791C9.83188 12.3782 10.3512 12.4315 10.8889 12.4315C12.4237 12.4315 13.7983 11.9982 14.8293 11.3145L14.8341 11.2846C14.87 11.0547 14.9015 10.7407 14.9272 10.4018C14.9782 9.72944 14.9996 9.05775 15 8.95302V5.25109C15 5.24933 15 5.24756 15 5.2458Z" fill="#0F1729"/>
</svg>
