<svg width="24" height="24" viewBox="0 0 24 24" fill="none" xmlns="http://www.w3.org/2000/svg">
<path fill-rule="evenodd" clip-rule="evenodd" d="M12 3C10.3431 3 8.99999 4.34315 8.99999 6H15C15 4.34315 13.6568 3 12 3ZM6.99999 6C6.99999 3.23858 9.23856 1 12 1C14.7614 1 17 3.23858 17 6H16.344C16.7793 6.00005 17.1598 6.0013 17.4791 6.026C17.8369 6.05369 18.1918 6.11475 18.5417 6.27628C19.047 6.50961 19.4775 6.87893 19.785 7.34294C19.9978 7.66418 20.1122 8.00569 20.1939 8.35514C20.2708 8.68375 20.3323 9.08359 20.403 9.54318L20.8541 12.4751C21.0467 13.7273 21.2013 14.7319 21.2545 15.5469C21.309 16.3818 21.2669 17.1241 20.9937 17.8221C20.5816 18.8752 19.8247 19.7575 18.8464 20.325C18.1981 20.7011 17.4709 20.8556 16.6374 20.9287C15.8238 21 14.8074 21 13.5406 21H10.4594C9.19261 21 8.17615 21 7.36259 20.9287C6.52911 20.8556 5.80189 20.7011 5.15355 20.325C4.17532 19.7575 3.41836 18.8752 3.00624 17.8221C2.73311 17.1241 2.69098 16.3818 2.74548 15.5469C2.79867 14.732 2.95324 13.7273 3.14588 12.4752L3.59697 9.54315C3.66765 9.08358 3.72915 8.68375 3.80605 8.35514C3.88783 8.00569 4.00214 7.66418 4.215 7.34294C4.52245 6.87893 4.95294 6.50961 5.45831 6.27628C5.80818 6.11475 6.1631 6.05369 6.52092 6.026C6.84016 6.0013 7.22067 6.00005 7.65594 6H6.99999ZM6.67522 8.02004C6.43795 8.0384 6.34572 8.06944 6.29665 8.09209C6.1282 8.16987 5.9847 8.29298 5.88222 8.44765C5.85236 8.4927 5.80766 8.57914 5.75344 8.81085C5.69629 9.05506 5.64597 9.3776 5.5683 9.88243L5.12978 12.7328C4.92834 14.0422 4.78804 14.9601 4.74123 15.6772C4.69507 16.3844 4.74968 16.789 4.86872 17.0932C5.11599 17.7251 5.57017 18.2545 6.1571 18.595C6.43967 18.7589 6.83129 18.8744 7.5373 18.9363C8.25317 18.9991 9.18175 19 10.5065 19H13.4935C14.8182 19 15.7468 18.9991 16.4627 18.9363C17.1687 18.8744 17.5603 18.7589 17.8429 18.595C18.4298 18.2545 18.884 17.7251 19.1313 17.0932C19.2503 16.789 19.3049 16.3844 19.2587 15.6772C19.2119 14.9601 19.0716 14.0422 18.8702 12.7328L18.4317 9.88243C18.354 9.37761 18.3037 9.05507 18.2465 8.81085C18.1923 8.57914 18.1476 8.4927 18.1178 8.44765C18.0153 8.29298 17.8718 8.16987 17.7033 8.09209C17.6543 8.06944 17.562 8.0384 17.3248 8.02004C17.0747 8.00069 16.7483 8 16.2375 8H7.76249C7.25172 8 6.92528 8.00069 6.67522 8.02004Z" fill="#0F1729"/>
</svg>
