<svg width="24" height="24" viewBox="0 0 24 24" fill="none" xmlns="http://www.w3.org/2000/svg">
<path fill-rule="evenodd" clip-rule="evenodd" d="M7.78799 5H14.212C15.0305 4.99999 15.7061 4.99998 16.2561 5.04565C16.8274 5.0931 17.3523 5.19496 17.8439 5.45035C18.5745 5.82985 19.1702 6.42553 19.5497 7.1561C19.805 7.64774 19.9069 8.17258 19.9543 8.74393C20 9.29394 20 9.96949 20 10.788V13.212C20 14.0305 20 14.7061 19.9543 15.2561C19.9069 15.8274 19.805 16.3523 19.5497 16.8439C19.1702 17.5745 18.5745 18.1702 17.8439 18.5497C17.3523 18.805 16.8274 18.9069 16.2561 18.9544C15.7061 19 15.0305 19 14.212 19H7.78798C6.96946 19 6.29393 19 5.74393 18.9544C5.17258 18.9069 4.64774 18.805 4.1561 18.5497C3.42553 18.1702 2.82985 17.5745 2.45035 16.8439C2.19496 16.3523 2.0931 15.8274 2.04565 15.2561C1.99998 14.7061 1.99999 14.0305 2 13.212V10.788C1.99999 9.96947 1.99998 9.29393 2.04565 8.74393C2.0931 8.17258 2.19496 7.64774 2.45035 7.1561C2.82985 6.42553 3.42553 5.82985 4.1561 5.45035C4.64774 5.19496 5.17258 5.0931 5.74393 5.04565C6.29393 4.99998 6.96947 4.99999 7.78799 5ZM5.90945 7.03879C5.46401 7.07578 5.23663 7.1428 5.07805 7.22517C4.71277 7.41493 4.41493 7.71277 4.22517 8.07805C4.1428 8.23663 4.07578 8.46401 4.03879 8.90945C4.0008 9.36686 4 9.95898 4 10.83V13.17C4 14.041 4.0008 14.6331 4.03879 15.0905C4.07578 15.536 4.1428 15.7634 4.22517 15.9219C4.41493 16.2872 4.71277 16.5851 5.07805 16.7748C5.23663 16.8572 5.46401 16.9242 5.90945 16.9612C6.36686 16.9992 6.95898 17 7.83 17H14.17C15.041 17 15.6331 16.9992 16.0905 16.9612C16.536 16.9242 16.7634 16.8572 16.9219 16.7748C17.2872 16.5851 17.5851 16.2872 17.7748 15.9219C17.8572 15.7634 17.9242 15.536 17.9612 15.0905C17.9992 14.6331 18 14.041 18 13.17V10.83C18 9.95898 17.9992 9.36686 17.9612 8.90945C17.9242 8.46401 17.8572 8.23663 17.7748 8.07805C17.5851 7.71277 17.2872 7.41493 16.9219 7.22517C16.7634 7.1428 16.536 7.07578 16.0905 7.03879C15.6331 7.0008 15.041 7 14.17 7H7.83C6.95898 7 6.36686 7.0008 5.90945 7.03879ZM22 8C22.5523 8 23 8.44772 23 9V15C23 15.5523 22.5523 16 22 16C21.4477 16 21 15.5523 21 15V9C21 8.44772 21.4477 8 22 8Z" fill="#0F1729"/>
</svg>
