<svg width="24" height="24" viewBox="0 0 24 24" fill="none" xmlns="http://www.w3.org/2000/svg">
<path fill-rule="evenodd" clip-rule="evenodd" d="M12.1041 3C9.19982 3 6.9545 5.19595 6.9545 7.77444V10.2188C6.9545 10.5405 6.82228 10.8248 6.75338 10.9646C6.66384 11.1463 6.54677 11.339 6.42189 11.5279C6.17031 11.9084 5.83361 12.3536 5.47487 12.8035C5.01458 13.3809 4.91657 14.0494 5.0632 14.5627C5.20252 15.0504 5.56426 15.432 6.18153 15.5344C7.73816 15.7925 9.72824 16 12.1041 16C14.6551 16 16.6049 15.7608 18.0148 15.4803C18.5156 15.3806 18.8052 15.078 18.9304 14.6866C19.0641 14.2684 19.0172 13.7009 18.6805 13.1607C18.5187 12.9011 18.3448 12.6358 18.1696 12.3698C18.1517 12.3426 18.1337 12.3154 18.1158 12.2881C17.9607 12.0528 17.8045 11.8158 17.6653 11.5955C17.5119 11.3526 17.3627 11.1043 17.2493 10.8776C17.1607 10.7004 17 10.3623 17 10V7.71194C17 5.09322 14.9665 3 12.1041 3ZM4.9545 7.77444C4.9545 3.97465 8.21572 1 12.1041 1C16.0344 1 19 3.95238 19 7.71194V9.90173C19.0084 9.92117 19.0206 9.94809 19.0382 9.98326C19.1058 10.1185 19.212 10.2991 19.3562 10.5274C19.4843 10.7302 19.6294 10.9503 19.7865 11.1887C19.8041 11.2155 19.8219 11.2424 19.8398 11.2696C20.0148 11.5353 20.2013 11.8195 20.3779 12.1029C20.997 13.0963 21.1635 14.2698 20.8353 15.2959C20.4985 16.3489 19.6505 17.1941 18.4051 17.4418C16.8616 17.7489 14.7809 18 12.1041 18C9.61153 18 7.51187 17.7823 5.85433 17.5074C4.43291 17.2717 3.47981 16.3011 3.14013 15.1121C2.80778 13.9487 3.06663 12.6159 3.91105 11.5567C4.25624 11.1238 4.5503 10.7323 4.75351 10.4249C4.85168 10.2764 4.91666 10.1655 4.9545 10.0904V7.77444ZM4.98375 10.0249C4.98403 10.0248 4.98265 10.0291 4.97876 10.0385C4.98152 10.0297 4.98347 10.0251 4.98375 10.0249ZM15.7853 19.3808C16.1272 19.8145 16.0529 20.4433 15.6192 20.7852C13.578 22.3948 10.4432 22.4152 8.37995 20.7846C7.94666 20.4421 7.87301 19.8132 8.21546 19.3799C8.55791 18.9466 9.18678 18.873 9.62008 19.2154C10.9507 20.2671 13.0602 20.2561 14.3808 19.2148C14.8145 18.8728 15.4433 18.9471 15.7853 19.3808Z" fill="#0F1729"/>
</svg>
