<svg width="24" height="24" viewBox="0 0 24 24" fill="none" xmlns="http://www.w3.org/2000/svg">
<path fill-rule="evenodd" clip-rule="evenodd" d="M12 2C6.47715 2 2 6.47715 2 12C2 17.5228 6.47715 22 12 22C17.5228 22 22 17.5228 22 12C22 6.47715 17.5228 2 12 2ZM7.97026 5.08755C9.15365 4.39618 10.5306 4 12 4C16.4183 4 20 7.58172 20 12C20 13.5862 19.5383 15.0646 18.7421 16.3082L7.97026 5.08755ZM6.37387 6.31259C4.90811 7.76265 4 9.77528 4 12C4 16.4183 7.58172 20 12 20C14.1073 20 16.0243 19.1852 17.4532 17.8535L6.37387 6.31259Z" fill="#0F1729"/>
</svg>
