<svg width="24" height="24" viewBox="0 0 24 24" fill="none" xmlns="http://www.w3.org/2000/svg">
<path fill-rule="evenodd" clip-rule="evenodd" d="M10.9438 2.4375C11.5271 1.85416 12.4729 1.85417 13.0562 2.4375L15.9129 5.29415C16.4962 5.87748 16.4962 6.82327 15.9129 7.4066L13.0562 10.2632C12.4729 10.8466 11.5271 10.8466 10.9438 10.2632L8.08713 7.4066C7.50379 6.82326 7.50379 5.87748 8.08713 5.29415L10.9438 2.4375ZM12 4.2097L9.85933 6.35037L12 8.49105L14.1407 6.35038L12 4.2097ZM5.29414 8.08712C5.87749 7.50378 6.82327 7.50378 7.4066 8.08712L10.2632 10.9438C10.8466 11.5271 10.8466 12.4729 10.2632 13.0562L7.4066 15.9129C6.82326 16.4962 5.87748 16.4962 5.29414 15.9129L2.4375 13.0562C1.85416 12.4729 1.85417 11.5271 2.4375 10.9438L5.29414 8.08712ZM6.35037 9.85932L4.2097 12L6.35037 14.1407L8.49105 12L6.35037 9.85932ZM16.5934 8.08713C17.1767 7.50379 18.1225 7.50379 18.7059 8.08713L21.5625 10.9438C22.1458 11.5271 22.1458 12.4729 21.5625 13.0562L18.7059 15.9129C18.1225 16.4962 17.1767 16.4962 16.5934 15.9129L13.7368 13.0562C13.1534 12.4729 13.1534 11.5271 13.7368 10.9438L16.5934 8.08713ZM17.6496 9.85932L15.509 12L17.6496 14.1407L19.7903 12L17.6496 9.85932ZM10.9438 13.7368C11.5271 13.1534 12.4729 13.1534 13.0562 13.7368L15.9129 16.5934C16.4962 17.1767 16.4962 18.1225 15.9129 18.7059L13.0562 21.5625C12.4729 22.1458 11.5271 22.1458 10.9438 21.5625L8.08712 18.7059C7.50378 18.1225 7.50378 17.1767 8.08712 16.5934L10.9438 13.7368ZM12 15.509L9.85931 17.6496L12 19.7903L14.1407 17.6496L12 15.509Z" fill="#0F1729"/>
</svg>
