<svg width="24" height="24" viewBox="0 0 24 24" fill="none" xmlns="http://www.w3.org/2000/svg">
<path fill-rule="evenodd" clip-rule="evenodd" d="M15.8694 9.53773C16.1838 8.66243 15.3376 7.81616 14.4623 8.13061L10.2921 9.62873C9.98303 9.73975 9.73975 9.98302 9.62874 10.2921L8.13063 14.4622C7.81619 15.3375 8.66245 16.1838 9.53776 15.8694L13.7079 14.3713C14.017 14.2602 14.2602 14.017 14.3713 13.7079L15.8694 9.53773ZM11.3675 11.3675L13.3417 10.6583L12.6325 12.6325L10.6583 13.3417L11.3675 11.3675Z" fill="#0F1729"/>
<path fill-rule="evenodd" clip-rule="evenodd" d="M12 2C6.47715 2 2 6.47715 2 12C2 17.5228 6.47715 22 12 22C17.5228 22 22 17.5228 22 12C22 6.47715 17.5228 2 12 2ZM4 12C4 7.58172 7.58172 4 12 4C16.4183 4 20 7.58172 20 12C20 16.4183 16.4183 20 12 20C7.58172 20 4 16.4183 4 12Z" fill="#0F1729"/>
</svg>
