<svg width="24" height="24" viewBox="0 0 24 24" fill="none" xmlns="http://www.w3.org/2000/svg">
<path fill-rule="evenodd" clip-rule="evenodd" d="M12 3C12.5523 3 13 3.44772 13 4V12.5858L15.2929 10.2929C15.6835 9.90237 16.3166 9.90237 16.7071 10.2929C17.0977 10.6834 17.0977 11.3166 16.7071 11.7071L12.7071 15.7071C12.5196 15.8946 12.2653 16 12 16C11.7348 16 11.4805 15.8946 11.2929 15.7071L7.29293 11.7071C6.90241 11.3166 6.90241 10.6834 7.29293 10.2929C7.68345 9.90237 8.31662 9.90237 8.70714 10.2929L11 12.5858V4C11 3.44772 11.4478 3 12 3ZM4.00004 14C4.55232 14 5.00004 14.4477 5.00004 15C5.00004 15.9772 5.00488 16.3198 5.05768 16.5853C5.2944 17.7753 6.22469 18.7056 7.41477 18.9424C7.68021 18.9952 8.02279 19 9.00004 19H15C15.9773 19 16.3199 18.9952 16.5853 18.9424C17.7754 18.7056 18.7057 17.7753 18.9424 16.5853C18.9952 16.3198 19 15.9772 19 15C19 14.4477 19.4478 14 20 14C20.5523 14 21 14.4477 21 15C21 15.0392 21 15.0777 21.0001 15.1157C21.0003 15.9334 21.0004 16.4906 20.904 16.9755C20.5094 18.9589 18.9589 20.5094 16.9755 20.9039C16.4907 21.0004 15.9334 21.0002 15.1158 21C15.0778 21 15.0392 21 15 21H9.00004C8.96087 21 8.92228 21 8.88426 21C8.06667 21.0002 7.50938 21.0004 7.02459 20.9039C5.04113 20.5094 3.49064 18.9589 3.09611 16.9755C2.99968 16.4906 2.99982 15.9334 3.00002 15.1158C3.00003 15.0777 3.00004 15.0392 3.00004 15C3.00004 14.4477 3.44775 14 4.00004 14Z" fill="#0F1729"/>
</svg>
