<svg width="24" height="24" viewBox="0 0 24 24" fill="none" xmlns="http://www.w3.org/2000/svg">
<path fill-rule="evenodd" clip-rule="evenodd" d="M9.90693 3.99989C9.93791 3.99994 9.96894 3.99999 10 3.99999C10.0311 3.99999 10.0621 3.99994 10.0931 3.99989C10.4618 3.99928 10.8242 3.99867 11.147 4.08518C12.0098 4.31635 12.6836 4.99021 12.9148 5.85294C13.0013 6.17578 13.0007 6.53819 13.0001 6.90691C13.0001 6.9379 13 6.96893 13 6.99999H21C21.5523 6.99999 22 7.44771 22 7.99999C22 8.55228 21.5523 8.99999 21 8.99999H13C13 9.03105 13.0001 9.06208 13.0001 9.09307C13.0007 9.46179 13.0013 9.8242 12.9148 10.147C12.6836 11.0098 12.0098 11.6836 11.147 11.9148C10.8242 12.0013 10.4618 12.0007 10.0931 12.0001C10.0621 12 10.0311 12 10 12C9.96894 12 9.93791 12 9.90692 12.0001C9.5382 12.0007 9.17579 12.0013 8.85295 11.9148C7.99022 11.6836 7.31635 11.0098 7.08519 10.147C6.99868 9.8242 6.99928 9.46179 6.9999 9.09307C6.99995 9.06208 7 9.03105 7 8.99999H5C4.44772 8.99999 4 8.55228 4 7.99999C4 7.44771 4.44772 6.99999 5 6.99999H7C7 6.96894 6.99995 6.9379 6.9999 6.90692C6.99928 6.53819 6.99868 6.17578 7.08519 5.85294C7.31635 4.99021 7.99022 4.31635 8.85295 4.08518C9.17579 3.99867 9.5382 3.99928 9.90693 3.99989ZM9.49861 6.00534C9.39195 6.01021 9.36685 6.01803 9.37059 6.01703C9.19804 6.06326 9.06327 6.19804 9.01704 6.37058C9.0162 6.37409 9.00963 6.40481 9.00535 6.4986C9.00024 6.61062 9 6.75844 9 6.99999V8.99999C9 9.24155 9.00024 9.38936 9.00535 9.50139C9.01021 9.60804 9.01804 9.63314 9.01704 9.6294C9.06327 9.80195 9.19804 9.93672 9.37059 9.98296C9.36685 9.98195 9.39195 9.98978 9.49861 9.99464C9.61063 9.99975 9.75844 9.99999 10 9.99999C10.2416 9.99999 10.3894 9.99975 10.5014 9.99464C10.608 9.98978 10.6331 9.98195 10.6294 9.98296C10.802 9.93672 10.9367 9.80195 10.983 9.6294C10.982 9.63314 10.9898 9.60804 10.9946 9.50139C10.9998 9.38936 11 9.24155 11 8.99999V6.99999C11 6.75844 10.9998 6.61062 10.9946 6.4986C10.9898 6.39194 10.982 6.36685 10.983 6.37058M9.49861 6.00534C9.61063 6.00023 9.75844 5.99999 10 5.99999L9.49861 6.00534ZM10 5.99999C10.2416 5.99999 10.3894 6.00023 10.5014 6.00534L10 5.99999ZM10.5014 6.00534C10.5952 6.00962 10.6259 6.01619 10.6294 6.01703L10.5014 6.00534ZM10.6298 6.01712C10.6298 6.01712 10.6296 6.01709 10.6294 6.01703L10.6298 6.01712ZM15.9069 11.9999C15.9379 11.9999 15.9689 12 16 12C16.0311 12 16.0621 11.9999 16.0931 11.9999C16.4618 11.9993 16.8242 11.9987 17.147 12.0852C18.0098 12.3163 18.6836 12.9902 18.9148 13.8529C19.0013 14.1758 19.0007 14.5382 19.0001 14.9069C19.0001 14.9379 19 14.9689 19 15H21C21.5523 15 22 15.4477 22 16C22 16.5523 21.5523 17 21 17H19C19 17.0311 19.0001 17.0621 19.0001 17.0931C19.0007 17.4618 19.0013 17.8242 18.9148 18.147C18.6836 19.0098 18.0098 19.6836 17.147 19.9148C16.8242 20.0013 16.4618 20.0007 16.0931 20.0001C16.0621 20 16.0311 20 16 20C15.9689 20 15.9379 20 15.9069 20.0001C15.5382 20.0007 15.1758 20.0013 14.853 19.9148C13.9902 19.6836 13.3164 19.0098 13.0852 18.147C12.9987 17.8242 12.9993 17.4618 12.9999 17.0931C12.9999 17.0621 13 17.031 13 17H5C4.44772 17 4 16.5523 4 16C4 15.4477 4.44772 15 5 15H13C13 14.9689 12.9999 14.9379 12.9999 14.9069C12.9993 14.5382 12.9987 14.1758 13.0852 13.8529C13.3164 12.9902 13.9902 12.3163 14.853 12.0852C15.1758 11.9987 15.5382 11.9993 15.9069 11.9999ZM15.4986 14.0053C15.392 14.0102 15.3669 14.018 15.3706 14.017C15.198 14.0633 15.0633 14.198 15.017 14.3706C15.018 14.3668 15.0102 14.3919 15.0054 14.4986C15.0002 14.6106 15 14.7584 15 15V17C15 17.2415 15.0002 17.3894 15.0054 17.5014C15.0102 17.608 15.018 17.6331 15.017 17.6294C15.0633 17.8019 15.198 17.9367 15.3706 17.983C15.3669 17.982 15.392 17.9898 15.4986 17.9946C15.6106 17.9998 15.7584 18 16 18C16.2416 18 16.3894 17.9998 16.5014 17.9946C16.608 17.9898 16.6331 17.982 16.6294 17.983C16.802 17.9367 16.9367 17.8019 16.983 17.6294C16.982 17.6331 16.9898 17.608 16.9946 17.5014C16.9998 17.3894 17 17.2415 17 17V15C17 14.7584 16.9998 14.6106 16.9946 14.4986C16.9898 14.3919 16.982 14.3668 16.983 14.3706C16.9367 14.198 16.802 14.0633 16.6294 14.017C16.6331 14.018 16.608 14.0102 16.5014 14.0053C16.3894 14.0002 16.2416 14 16 14C15.7584 14 15.6106 14.0002 15.4986 14.0053Z" fill="#0F1729"/>
</svg>
