<svg width="24" height="24" viewBox="0 0 24 24" fill="none" xmlns="http://www.w3.org/2000/svg">
<path fill-rule="evenodd" clip-rule="evenodd" d="M12.0001 8.00002C9.79098 8.00002 8.00012 9.79088 8.00012 12C8.00012 14.2092 9.79098 16 12.0001 16C14.2093 16 16.0001 14.2092 16.0001 12C16.0001 9.79088 14.2093 8.00002 12.0001 8.00002ZM10.0001 12C10.0001 10.8955 10.8955 10 12.0001 10C13.1047 10 14.0001 10.8955 14.0001 12C14.0001 13.1046 13.1047 14 12.0001 14C10.8955 14 10.0001 13.1046 10.0001 12Z" fill="#0F1729"/>
<path fill-rule="evenodd" clip-rule="evenodd" d="M12.0001 8.00002C9.79098 8.00002 8.00012 9.79088 8.00012 12C8.00012 14.2092 9.79098 16 12.0001 16C14.2093 16 16.0001 14.2092 16.0001 12C16.0001 9.79088 14.2093 8.00002 12.0001 8.00002ZM10.0001 12C10.0001 10.8955 10.8955 10 12.0001 10C13.1047 10 14.0001 10.8955 14.0001 12C14.0001 13.1046 13.1047 14 12.0001 14C10.8955 14 10.0001 13.1046 10.0001 12Z" fill="#0F1729"/>
<path fill-rule="evenodd" clip-rule="evenodd" d="M10.7674 1.01709C10.9927 0.999829 11.2455 0.99993 11.4517 1.00001L12.5486 1.00001C12.7548 0.99993 13.0076 0.999829 13.2328 1.01709C13.499 1.03749 13.8679 1.08936 14.2636 1.26937C14.7636 1.49689 15.1916 1.85736 15.5008 2.31147C15.7455 2.67075 15.8593 3.0255 15.9247 3.2843C15.98 3.50334 16.0229 3.75249 16.0579 3.9557L16.1994 4.77635L16.2022 4.77788C16.237 4.79712 16.2717 4.81659 16.3062 4.8363L16.3087 4.83774L17.2456 4.49865C17.4357 4.42978 17.6694 4.34509 17.8836 4.28543C18.1373 4.2148 18.4955 4.13889 18.9217 4.17026C19.4615 4.20998 19.9804 4.39497 20.4236 4.70563C20.7736 4.95095 21.003 5.23636 21.1548 5.4515C21.283 5.63326 21.4104 5.84671 21.5141 6.02029L22.016 6.86003C22.1257 7.04345 22.2595 7.26713 22.3628 7.47527C22.4844 7.7203 22.633 8.07474 22.6778 8.52067C22.7343 9.08222 22.6312 9.64831 22.3804 10.1539C22.1812 10.5554 21.9173 10.8347 21.7171 11.0212C21.547 11.1795 21.3429 11.3417 21.1756 11.4746L20.5001 12L21.1756 12.5254C21.343 12.6584 21.547 12.8205 21.717 12.9789C21.9172 13.1653 22.1812 13.4446 22.3803 13.8461C22.6311 14.3517 22.7342 14.9178 22.6778 15.4794C22.6329 15.9253 22.4844 16.2797 22.3627 16.5248C22.2594 16.7329 22.1256 16.9566 22.0159 17.14L21.5139 17.9799C21.4103 18.1535 21.2829 18.3668 21.1547 18.5485C21.003 18.7637 20.7735 19.0491 20.4236 19.2944C19.9804 19.6051 19.4614 19.7901 18.9217 19.8298C18.4955 19.8612 18.1372 19.7852 17.8836 19.7146C17.6693 19.6549 17.4356 19.5703 17.2455 19.5014L16.3087 19.1623L16.3061 19.1638C16.2716 19.1835 16.237 19.2029 16.2022 19.2222L16.1994 19.2237L16.0579 20.0443C16.0229 20.2475 15.98 20.4967 15.9247 20.7157C15.8593 20.9745 15.7455 21.3293 15.5008 21.6886C15.1916 22.1427 14.7636 22.5032 14.2636 22.7307C13.8679 22.9107 13.499 22.9626 13.2328 22.983C13.0076 23.0002 12.7547 23.0001 12.5485 23H11.4517C11.2455 23.0001 10.9927 23.0002 10.7674 22.983C10.5013 22.9626 10.1323 22.9107 9.73668 22.7307C9.23661 22.5032 8.80861 22.1427 8.49939 21.6886C8.25473 21.3293 8.1409 20.9745 8.07555 20.7157C8.02024 20.4967 7.97735 20.2475 7.94237 20.0443L7.8008 19.2237L7.79803 19.2222C7.76323 19.2029 7.72858 19.1835 7.69408 19.1637L7.69155 19.1623L6.7547 19.5014C6.56462 19.5702 6.3309 19.6549 6.11663 19.7146C5.863 19.7852 5.50475 19.8611 5.07854 19.8298C4.53878 19.7901 4.01983 19.6051 3.57666 19.2944C3.22672 19.0491 2.99726 18.7637 2.84551 18.5485C2.7173 18.3668 2.58986 18.1534 2.48622 17.9798L1.98431 17.14C1.87459 16.9566 1.74079 16.7329 1.63749 16.5248C1.51587 16.2797 1.36731 15.9253 1.32247 15.4794C1.26601 14.9178 1.36909 14.3517 1.61989 13.8461C1.81904 13.4446 2.08302 13.1653 2.2832 12.9789C2.45324 12.8205 2.65729 12.6584 2.82462 12.5254L3.47856 12.0054V11.9947L2.82457 11.4746C2.65724 11.3417 2.4532 11.1795 2.28316 11.0212C2.08297 10.8347 1.819 10.5554 1.61984 10.1539C1.36905 9.64832 1.26596 9.08224 1.32243 8.52069C1.36726 8.07476 1.51583 7.72032 1.63745 7.47528C1.74075 7.26715 1.87455 7.04347 1.98427 6.86005L2.48617 6.02026C2.58981 5.84669 2.71726 5.63326 2.84546 5.45151C2.99722 5.23637 3.22667 4.95096 3.57662 4.70565C4.01979 4.39498 4.53874 4.20999 5.07849 4.17027C5.5047 4.1389 5.86296 4.21481 6.11658 4.28544C6.33085 4.34511 6.56456 4.4298 6.75463 4.49867L7.69153 4.83775L7.69406 4.8363C7.72856 4.8166 7.76322 4.79712 7.79803 4.77788L7.8008 4.77635L7.94237 3.95571C7.97735 3.7525 8.02023 3.50334 8.07555 3.2843C8.1409 3.0255 8.25473 2.67075 8.49939 2.31147C8.80861 1.85736 9.23661 1.49689 9.73668 1.26937C10.1323 1.08936 10.5013 1.03749 10.7674 1.01709ZM14.094 4.3363C14.0112 3.85634 13.9698 3.61637 13.8477 3.43717C13.7447 3.2858 13.602 3.16564 13.4353 3.0898C13.238 3.00002 12.9944 3.00002 12.5074 3.00002H11.4928C11.0058 3.00002 10.7623 3.00002 10.5649 3.0898C10.3982 3.16564 10.2556 3.2858 10.1525 3.43717C10.0305 3.61637 9.98908 3.85634 9.90627 4.3363L9.75025 5.24064C9.69457 5.56333 9.66674 5.72467 9.60777 5.84869C9.54987 5.97047 9.50253 6.03703 9.40648 6.13166C9.30865 6.22804 9.12765 6.3281 8.76566 6.52822C8.73897 6.54298 8.71239 6.55791 8.68594 6.57302C8.33968 6.77078 8.16655 6.86966 8.03797 6.90314C7.9117 6.93602 7.83305 6.94279 7.70301 6.93196C7.57061 6.92094 7.42228 6.86726 7.12563 6.7599L6.11207 6.39308C5.66283 6.2305 5.43821 6.14921 5.22528 6.16488C5.04536 6.17811 4.87237 6.23978 4.72465 6.34333C4.54982 6.46589 4.42727 6.67094 4.18218 7.08103L3.72281 7.84965C3.46406 8.2826 3.33468 8.49907 3.31239 8.72078C3.29357 8.90796 3.32793 9.09665 3.41153 9.26519C3.51054 9.4648 3.70792 9.62177 4.10268 9.9357L4.82757 10.5122C5.07939 10.7124 5.2053 10.8126 5.28424 10.9199C5.36956 11.036 5.40595 11.1114 5.44367 11.2504C5.47856 11.379 5.47856 11.586 5.47856 12C5.47856 12.414 5.47856 12.621 5.44366 12.7497C5.40594 12.8887 5.36956 12.9641 5.28425 13.0801C5.20531 13.1875 5.07939 13.2876 4.82755 13.4879L4.10273 14.0643C3.70798 14.3783 3.51059 14.5352 3.41157 14.7349C3.32798 14.9034 3.29362 15.0921 3.31244 15.2793C3.33473 15.501 3.4641 15.7174 3.72286 16.1504L4.18222 16.919C4.42732 17.3291 4.54987 17.5342 4.7247 17.6567C4.87242 17.7603 5.0454 17.8219 5.22532 17.8352C5.43825 17.8508 5.66287 17.7695 6.11211 17.607L7.12565 17.2402C7.42228 17.1328 7.57063 17.0791 7.70303 17.0681C7.83306 17.0573 7.91171 17.064 8.03799 17.0969C8.16656 17.1304 8.33969 17.2293 8.68594 17.427C8.7124 17.4421 8.73897 17.4571 8.76566 17.4718C9.12765 17.6719 9.30865 17.772 9.40648 17.8684C9.50253 17.963 9.54987 18.0296 9.60777 18.1514C9.66674 18.2754 9.69457 18.4367 9.75025 18.7594L9.90627 19.6637C9.98908 20.1437 10.0305 20.3837 10.1525 20.5629C10.2556 20.7142 10.3982 20.8344 10.5649 20.9102C10.7623 21 11.0058 21 11.4928 21H12.5074C12.9944 21 13.238 21 13.4353 20.9102C13.602 20.8344 13.7447 20.7142 13.8477 20.5629C13.9698 20.3837 14.0112 20.1437 14.094 19.6637L14.25 18.7594C14.3057 18.4367 14.3335 18.2754 14.3925 18.1514C14.4504 18.0296 14.4977 17.963 14.5938 17.8684C14.6916 17.772 14.8726 17.6719 15.2346 17.4718C15.2613 17.4571 15.2878 17.4421 15.3143 17.427C15.6605 17.2293 15.8337 17.1304 15.9622 17.0969C16.0885 17.064 16.1672 17.0573 16.2972 17.0681C16.4296 17.0791 16.5779 17.1328 16.8746 17.2402L17.8881 17.607C18.3374 17.7696 18.562 17.8509 18.7749 17.8352C18.9548 17.8219 19.1278 17.7603 19.2755 17.6567C19.4504 17.5342 19.5729 17.3291 19.818 16.919L20.2774 16.1504C20.5361 15.7175 20.6655 15.501 20.6878 15.2793C20.7066 15.0921 20.6723 14.9034 20.5887 14.7349C20.4896 14.5353 20.2923 14.3783 19.8975 14.0643L19.1727 13.4879C18.9208 13.2876 18.7949 13.1875 18.716 13.0801C18.6307 12.9641 18.5943 12.8887 18.5566 12.7497C18.5217 12.6211 18.5217 12.414 18.5217 12C18.5217 11.586 18.5217 11.379 18.5566 11.2504C18.5943 11.1114 18.6307 11.036 18.716 10.9199C18.7949 10.8126 18.9208 10.7124 19.1727 10.5122L19.8975 9.9357C20.2923 9.62176 20.4897 9.46479 20.5887 9.26517C20.6723 9.09664 20.7067 8.90795 20.6878 8.72076C20.6655 8.49906 20.5362 8.28259 20.2774 7.84964L19.8181 7.08102C19.573 6.67093 19.4504 6.46588 19.2756 6.34332C19.1279 6.23977 18.9549 6.1781 18.775 6.16486C18.562 6.14919 18.3374 6.23048 17.8882 6.39307L16.8746 6.75989C16.5779 6.86725 16.4296 6.92093 16.2972 6.93195C16.1672 6.94278 16.0885 6.93601 15.9622 6.90313C15.8337 6.86965 15.6605 6.77077 15.3143 6.57302C15.2878 6.55791 15.2613 6.54298 15.2346 6.52822C14.8726 6.3281 14.6916 6.22804 14.5938 6.13166C14.4977 6.03703 14.4504 5.97047 14.3925 5.84869C14.3335 5.72467 14.3057 5.56332 14.25 5.24064L14.094 4.3363Z" fill="#0F1729"/>
</svg>
