<svg width="24" height="24" viewBox="0 0 24 24" fill="none" xmlns="http://www.w3.org/2000/svg">
<path fill-rule="evenodd" clip-rule="evenodd" d="M10.7623 1.52594C10.0999 1.25157 9.37104 1.17978 8.66786 1.31966C7.96467 1.45953 7.31876 1.80477 6.81179 2.31174C6.30483 2.8187 5.95958 3.46462 5.81971 4.1678C5.67984 4.87098 5.75163 5.59985 6.02599 6.26223C6.13473 6.52474 6.27335 6.77214 6.4382 6.99997C6.00092 6.99997 5.66948 7.0025 5.37432 7.04925C3.66275 7.32033 2.32039 8.66269 2.0493 10.3743C1.99977 10.687 1.99988 11.0405 2.00004 11.5175L2.00003 11.6671C1.99983 11.9716 1.99967 12.2336 2.03699 12.4693C2.21132 13.5699 2.9763 14.467 4.00006 14.8286L4.00006 16.212C4.00004 17.0305 4.00003 17.7061 4.04571 18.2561C4.09315 18.8274 4.19502 19.3523 4.4504 19.8439C4.8299 20.5745 5.42559 21.1702 6.15616 21.5497C6.64779 21.805 7.17264 21.9069 7.74399 21.9543C8.29397 22 8.96949 22 9.78799 22H14.2121C15.0306 22 15.7061 22 16.2561 21.9543C16.8275 21.9069 17.3523 21.805 17.844 21.5497C18.5745 21.1702 19.1702 20.5745 19.5497 19.8439C19.8051 19.3523 19.907 18.8274 19.9544 18.2561C20.0001 17.7061 20.0001 17.0306 20.0001 16.2121V14.8286C21.0238 14.467 21.7888 13.5699 21.9631 12.4693C22.0004 12.2336 22.0003 11.9716 22.0001 11.6671L22.0001 11.5175C22.0002 11.0406 22.0003 10.687 21.9508 10.3743C21.6797 8.66269 20.3374 7.32033 18.6258 7.04925C18.3306 7.0025 17.9992 6.99997 17.5619 6.99997C17.7268 6.77214 17.8654 6.52474 17.9741 6.26223C18.2485 5.59985 18.3203 4.87098 18.1804 4.1678C18.0405 3.46462 17.6953 2.8187 17.1883 2.31174C16.6814 1.80477 16.0354 1.45953 15.3323 1.31966C14.6291 1.17978 13.9002 1.25157 13.2378 1.52594C12.7684 1.72038 12.3473 2.01037 12.0001 2.375C11.6528 2.01037 11.2317 1.72038 10.7623 1.52594ZM11.0001 9H6.60006C6.00444 9 5.82306 9.0031 5.68719 9.02462C4.8314 9.16017 4.16022 9.83135 4.02468 10.6871C4.00316 10.823 4.00006 11.0044 4.00006 11.6C4.00006 12.0098 4.00316 12.0983 4.01237 12.1564C4.08014 12.5843 4.41573 12.9199 4.84362 12.9877C4.90176 12.9969 4.99024 13 5.40006 13H11.0001V9ZM13.0001 13V9H17.4001C17.9957 9 18.1771 9.0031 18.3129 9.02462C19.1687 9.16017 19.8399 9.83135 19.9754 10.6871C19.997 10.823 20.0001 11.0044 20.0001 11.6C20.0001 12.0098 19.997 12.0983 19.9877 12.1564C19.92 12.5843 19.5844 12.9199 19.1565 12.9877C19.0984 12.9969 19.0099 13 18.6001 13H13.0001ZM11.0001 15H6.00006V16.17C6.00006 17.041 6.00086 17.6331 6.03885 18.0905C6.07584 18.536 6.14285 18.7634 6.22523 18.9219C6.41498 19.2872 6.71282 19.5851 7.07811 19.7748C7.23669 19.8572 7.46407 19.9242 7.90951 19.9612C8.36692 19.9992 8.95903 20 9.83006 20H11.0001V15ZM13.0001 20V15H18.0001V16.17C18.0001 17.041 17.9993 17.6331 17.9613 18.0905C17.9243 18.536 17.8573 18.7634 17.7749 18.9219C17.5851 19.2872 17.2873 19.5851 16.922 19.7748C16.7634 19.8572 16.536 19.9242 16.0906 19.9612C15.6332 19.9992 15.0411 20 14.1701 20H13.0001ZM14.6251 6.5H13.0001V4.875C13.0001 4.55361 13.0954 4.23943 13.2739 3.9722C13.4525 3.70497 13.7063 3.49669 14.0032 3.3737C14.3001 3.2507 14.6269 3.21852 14.9421 3.28123C15.2573 3.34393 15.5468 3.49869 15.7741 3.72595C16.0014 3.95321 16.1561 4.24276 16.2188 4.55798C16.2815 4.8732 16.2494 5.19993 16.1264 5.49686C16.0034 5.79379 15.7951 6.04758 15.5279 6.22614C15.2606 6.4047 14.9465 6.5 14.6251 6.5ZM10.7262 3.9722C10.9048 4.23943 11.0001 4.55361 11.0001 4.875V6.5H9.37506C9.05366 6.5 8.73949 6.4047 8.47226 6.22614C8.20503 6.04758 7.99675 5.79379 7.87375 5.49686C7.75076 5.19993 7.71858 4.8732 7.78128 4.55798C7.84398 4.24276 7.99875 3.95321 8.22601 3.72595C8.45327 3.49869 8.74282 3.34393 9.05804 3.28123C9.37326 3.21852 9.69999 3.25071 9.99692 3.3737C10.2938 3.49669 10.5476 3.70497 10.7262 3.9722Z" fill="#0F1729"/>
</svg>
