<svg width="24" height="24" viewBox="0 0 24 24" fill="none" xmlns="http://www.w3.org/2000/svg">
<path fill-rule="evenodd" clip-rule="evenodd" d="M4.25203 10C4.08751 10.6392 4 11.3094 4 12C4 12.6906 4.08751 13.3608 4.25204 14H8.10516C8.03772 13.3727 8 12.7062 8 12C8 11.2938 8.03772 10.6273 8.10516 10H4.25203ZM5.07026 8H8.44148C8.74649 6.6871 9.17396 5.60504 9.60763 4.74755C9.68837 4.58792 9.76925 4.4362 9.8495 4.29235C7.81403 4.85906 6.10548 6.21041 5.07026 8ZM12 4.60481C11.8126 4.88536 11.6032 5.23336 11.3924 5.65018C11.0768 6.27421 10.7565 7.0555 10.5029 8H13.4971C13.2435 7.0555 12.9232 6.27421 12.6076 5.65018C12.3968 5.23336 12.1874 4.88536 12 4.60481ZM13.8818 10H10.1182C10.0431 10.6184 10 11.2848 10 12C10 12.7152 10.0431 13.3816 10.1182 14H13.8818C13.9569 13.3816 14 12.7152 14 12C14 11.2848 13.9569 10.6184 13.8818 10ZM15.8948 14C15.9623 13.3727 16 12.7062 16 12C16 11.2938 15.9623 10.6273 15.8948 10H19.748C19.9125 10.6392 20 11.3094 20 12C20 12.6906 19.9125 13.3608 19.748 14H15.8948ZM13.4971 16H10.5029C10.7565 16.9445 11.0768 17.7258 11.3924 18.3498C11.6032 18.7666 11.8126 19.1146 12 19.3952C12.1874 19.1146 12.3968 18.7666 12.6076 18.3498C12.9232 17.7258 13.2435 16.9445 13.4971 16ZM9.84951 19.7077C9.76925 19.5638 9.68837 19.4121 9.60763 19.2524C9.17396 18.395 8.74649 17.3129 8.44148 16H5.07026C6.10548 17.7896 7.81403 19.1409 9.84951 19.7077ZM14.1505 19.7076C14.2308 19.5638 14.3116 19.4121 14.3924 19.2524C14.826 18.395 15.2535 17.3129 15.5585 16H18.9297C17.8945 17.7896 16.186 19.1409 14.1505 19.7076ZM18.9297 8H15.5585C15.2535 6.6871 14.826 5.60504 14.3924 4.74755C14.3116 4.58792 14.2308 4.4362 14.1505 4.29235C16.186 4.85906 17.8945 6.21041 18.9297 8ZM2 12C2 6.47715 6.47715 2 12 2C17.5228 2 22 6.47715 22 12C22 17.5228 17.5228 22 12 22C6.47715 22 2 17.5228 2 12Z" fill="#0F1729"/>
</svg>
