<svg width="24" height="24" viewBox="0 0 24 24" fill="none" xmlns="http://www.w3.org/2000/svg">
<path fill-rule="evenodd" clip-rule="evenodd" d="M8.97692 5.00027C8.9846 5.0001 8.99229 5.00001 9 5.00001H15C15.0077 5.00001 15.0154 5.0001 15.0231 5.00027C15.0969 4.99979 15.1721 4.99986 15.2491 4.99993L16.8192 4.99998C17.3552 4.99996 17.8176 4.99995 18.1983 5.03156C18.6002 5.06494 18.9997 5.13865 19.3829 5.33774C19.9309 5.62237 20.3776 6.06913 20.6622 6.61706C20.8613 7.00033 20.935 7.3998 20.9684 7.80168C21 8.18234 21 8.64473 21 9.18074V17H22.0359C23.1776 17 23.3709 18.6853 22.2608 18.9601L20.4281 19.4137C20.1966 19.4711 19.9592 19.5 19.7211 19.5H4.27893C4.04077 19.5 3.80344 19.4711 3.57185 19.4137L1.73921 18.9601C0.629119 18.6853 0.822449 17 1.96406 17H3L3 9.18078C2.99998 8.64476 2.99996 8.18235 3.03158 7.80168C3.06495 7.3998 3.13867 7.00033 3.33776 6.61706C3.62239 6.06913 4.06915 5.62237 4.61708 5.33774C5.00034 5.13865 5.39982 5.06494 5.8017 5.03156C6.18237 4.99995 6.64477 4.99996 7.1808 4.99998L8.75093 4.99993C8.82787 4.99986 8.90312 4.99979 8.97692 5.00027ZM9.40883 7.02854C9.31912 7.00662 9.21201 6.99998 8.66623 6.99998H7.22C6.63372 6.99998 6.25517 7.00079 5.96722 7.0247C5.69125 7.04762 5.58924 7.08649 5.53903 7.11257C5.35638 7.20745 5.20746 7.35637 5.11259 7.53901C5.0865 7.58922 5.04763 7.69123 5.02472 7.96721C5.0008 8.25515 5 8.63371 5 9.21998V17H19V9.21998C19 8.63371 18.9992 8.25515 18.9753 7.96721C18.9524 7.69123 18.9135 7.58922 18.8874 7.53901C18.7925 7.35637 18.6436 7.20745 18.461 7.11257C18.4108 7.08649 18.3088 7.04762 18.0328 7.0247C17.7448 7.00079 17.3663 6.99998 16.78 6.99998H15.3338C14.788 6.99998 14.6809 7.00662 14.5912 7.02854C14.4918 7.05281 14.3967 7.09219 14.3093 7.1453C14.2306 7.19307 14.1478 7.26638 13.7547 7.65947L13.7538 7.66041C13.7483 7.66592 13.7248 7.68955 13.7002 7.71201C13.6671 7.74219 13.6095 7.79164 13.5296 7.84014C13.4335 7.89856 13.3289 7.94187 13.2196 7.96857C13.1298 7.9905 13.0547 7.99643 13.0092 7.99855C12.9756 8.00011 12.9421 8.00001 12.9346 7.99999L12.9333 7.99998H11.0667L11.0654 7.99999C11.0579 8.00001 11.0244 8.00011 10.9908 7.99855C10.9453 7.99643 10.8702 7.9905 10.7804 7.96857C10.6711 7.94187 10.5665 7.89856 10.4704 7.84014C10.3905 7.79164 10.3329 7.74219 10.2998 7.71201C10.2752 7.68957 10.2517 7.66597 10.2462 7.66044L10.2453 7.65947C9.85218 7.26638 9.76937 7.19307 9.69072 7.1453C9.60328 7.09219 9.50821 7.05281 9.40883 7.02854Z" fill="#0F1729"/>
</svg>
