<svg width="24" height="24" viewBox="0 0 24 24" fill="none" xmlns="http://www.w3.org/2000/svg">
<path fill-rule="evenodd" clip-rule="evenodd" d="M12 3C10.5936 3 9.29944 3.05598 8.14447 3.14113C6.41583 3.26859 5.80428 3.32966 5.07504 3.73C4.42978 4.08423 3.66735 4.90494 3.36153 5.5745C3.01915 6.32408 2.99996 7.07231 2.99996 9.13826V10.8156C2.99996 11.9615 3.00431 12.3963 3.06898 12.7399C3.3738 14.3594 4.64059 15.6262 6.26006 15.931C6.60368 15.9957 7.03841 16 8.18436 16C8.19474 16 8.2054 16 8.21631 16C8.33193 15.9998 8.47565 15.9996 8.61586 16.019C9.21325 16.1021 9.74127 16.4502 10.0529 16.9666C10.126 17.0878 10.1824 17.22 10.2278 17.3264C10.2321 17.3364 10.2363 17.3462 10.2404 17.3557L10.6994 18.4267C11.0608 19.2701 11.3054 19.8382 11.518 20.2317C11.6905 20.5511 11.7828 20.6364 11.7939 20.6477C11.9249 20.7069 12.075 20.7069 12.206 20.6477C12.2171 20.6364 12.3094 20.5511 12.482 20.2317C12.6945 19.8382 12.9391 19.2701 13.3005 18.4267L13.7595 17.3557C13.7636 17.3462 13.7678 17.3364 13.7721 17.3264C13.8175 17.22 13.8739 17.0878 13.947 16.9666C14.2586 16.4502 14.7867 16.1021 15.384 16.019C15.5243 15.9996 15.668 15.9998 15.7836 16C15.7945 16 15.8052 16 15.8156 16C16.9615 16 17.3962 15.9957 17.7399 15.931C19.3593 15.6262 20.6261 14.3594 20.9309 12.7399C20.9956 12.3963 21 11.9615 21 10.8156V9.13826C21 7.07231 20.9808 6.32408 20.6384 5.5745C20.3326 4.90494 19.5701 4.08423 18.9249 3.73C18.1956 3.32966 17.5841 3.26859 15.8554 3.14113C14.7005 3.05598 13.4063 3 12 3ZM7.9974 1.14655C9.19736 1.05807 10.5407 1 12 1C13.4592 1 14.8026 1.05807 16.0025 1.14655C16.0471 1.14984 16.0913 1.15308 16.135 1.1563C17.697 1.27104 18.7415 1.34777 19.8873 1.97681C20.91 2.53823 21.9729 3.68239 22.4576 4.74356C23.001 5.93322 23.0006 7.13737 23 8.95396C23 9.0147 23 9.07613 23 9.13826V10.8156C23 10.8555 23 10.8949 23 10.9337C23.0001 11.921 23.0002 12.5583 22.8964 13.1098C22.4392 15.539 20.539 17.4392 18.1098 17.8965C17.5583 18.0003 16.921 18.0002 15.9336 18C15.8948 18 15.8555 18 15.8156 18C15.7355 18 15.694 18.0001 15.6638 18.0009C15.6624 18.0009 15.6612 18.0009 15.66 18.001C15.6595 18.002 15.659 18.0032 15.6584 18.0044C15.6458 18.0319 15.6294 18.07 15.5978 18.1436L15.1192 19.2604C14.7824 20.0462 14.5026 20.6992 14.2416 21.1823C13.9897 21.6486 13.6509 22.1678 13.0979 22.4381C12.4051 22.7768 11.5948 22.7768 10.902 22.4381C10.3491 22.1678 10.0102 21.6486 9.7583 21.1823C9.49732 20.6992 9.21747 20.0462 8.88073 19.2604L8.40209 18.1436C8.37054 18.07 8.35415 18.0319 8.34151 18.0044C8.34095 18.0032 8.34042 18.002 8.33992 18.001C8.33875 18.0009 8.33749 18.0009 8.33615 18.0009C8.30588 18.0001 8.26445 18 8.18436 18C8.14445 18 8.10509 18 8.06627 18C7.07891 18.0002 6.44163 18.0003 5.89011 17.8965C3.46091 17.4392 1.56073 15.539 1.1035 13.1098C0.999687 12.5583 0.999788 11.921 0.999944 10.9337C0.99995 10.8949 0.999957 10.8555 0.999957 10.8156V9.13826C0.999957 9.07613 0.999936 9.0147 0.999917 8.95396C0.999322 7.13737 0.998928 5.93322 1.54231 4.74356C2.02701 3.68239 3.08992 2.53823 4.11258 1.97681C5.25842 1.34777 6.30288 1.27104 7.86487 1.1563C7.90864 1.15308 7.95281 1.14984 7.9974 1.14655Z" fill="#0F1729"/>
</svg>
