<svg width="24" height="24" viewBox="0 0 24 24" fill="none" xmlns="http://www.w3.org/2000/svg">
<path fill-rule="evenodd" clip-rule="evenodd" d="M7.00004 7C7.00004 4.23858 9.23862 2 12 2C14.7615 2 17 4.23858 17 7V11C17 13.7614 14.7615 16 12 16C9.23862 16 7.00004 13.7614 7.00004 11V7ZM12 4C10.3432 4 9.00004 5.34315 9.00004 7V11C9.00004 12.6569 10.3432 14 12 14C13.6569 14 15 12.6569 15 11V7C15 5.34315 13.6569 4 12 4ZM4.49483 14.137C4.97144 13.858 5.58401 14.0182 5.86303 14.4948C7.08977 16.5903 9.37755 18 12 18C14.6225 18 16.9103 16.5903 18.137 14.4948C18.4161 14.0182 19.0286 13.858 19.5053 14.137C19.9819 14.416 20.1421 15.0286 19.863 15.5052C18.4479 17.9225 15.9331 19.6272 13 19.946V22C13 22.5523 12.5523 23 12 23C11.4478 23 11 22.5523 11 22V19.946C8.067 19.6272 5.55218 17.9225 4.13704 15.5052C3.85802 15.0286 4.01821 14.416 4.49483 14.137Z" fill="#0F1729"/>
</svg>
