<svg width="24" height="24" viewBox="0 0 24 24" fill="none" xmlns="http://www.w3.org/2000/svg">
<path fill-rule="evenodd" clip-rule="evenodd" d="M19.9288 18.9289C20.3194 19.3194 20.3194 19.9526 19.9288 20.3431C19.5383 20.7337 18.9052 20.7337 18.5146 20.3431L16.8073 18.6358C15.6796 19.3348 14.3865 19.7953 12.9999 19.946V22C12.9999 22.5523 12.5522 23 11.9999 23C11.4476 23 10.9999 22.5523 10.9999 22V19.946C8.06688 19.6272 5.55205 17.9225 4.13692 15.5052C3.8579 15.0286 4.01809 14.416 4.4947 14.137C4.97132 13.858 5.58389 14.0182 5.86291 14.4948C7.08965 16.5903 9.37743 18 11.9999 18C13.2092 18 14.3474 17.7002 15.3432 17.1717L13.8271 15.6556C13.2611 15.8779 12.6448 16 11.9999 16C9.23849 16 6.99992 13.7614 6.99992 11V8.82842L4.51463 6.34314C4.12411 5.95261 4.12411 5.31945 4.51463 4.92893C4.90516 4.5384 5.53832 4.5384 5.92885 4.92893L19.9288 18.9289ZM8.99992 10.8284V11C8.99992 12.6569 10.3431 14 11.9999 14C12.056 14 12.1116 13.9985 12.1669 13.9954L8.99992 10.8284Z" fill="#0F1729"/>
<path d="M9.37489 5.54654L7.92718 4.09884C8.83383 2.82834 10.3201 2 11.9999 2C14.7613 2 16.9999 4.23858 16.9999 7V11C16.9999 11.6449 16.8778 12.2612 16.6555 12.8272L14.9953 11.167C14.9984 11.1117 14.9999 11.056 14.9999 11V7C14.9999 5.34315 13.6568 4 11.9999 4C10.8704 4 9.88666 4.62424 9.37489 5.54654Z" fill="#0F1729"/>
<path d="M18.2122 14.3838L19.6614 15.8331C19.7309 15.7253 19.798 15.616 19.8629 15.5052C20.1419 15.0286 19.9817 14.416 19.5051 14.137C19.0677 13.8809 18.5157 13.9948 18.2122 14.3838Z" fill="#0F1729"/>
</svg>
