<svg width="24" height="24" viewBox="0 0 24 24" fill="none" xmlns="http://www.w3.org/2000/svg">
<path fill-rule="evenodd" clip-rule="evenodd" d="M5 9C5 5.13401 8.13401 2 12 2C15.866 2 19 5.13401 19 9V15C19 18.866 15.866 22 12 22C8.13401 22 5 18.866 5 15V9ZM12 4C9.23858 4 7 6.23858 7 9V15C7 17.7614 9.23858 20 12 20C14.7614 20 17 17.7614 17 15V9C17 6.23858 14.7614 4 12 4ZM12 7C12.5523 7 13 7.44772 13 8V11C13 11.5523 12.5523 12 12 12C11.4477 12 11 11.5523 11 11V8C11 7.44772 11.4477 7 12 7Z" fill="#0F1729"/>
</svg>
