<svg width="24" height="24" viewBox="0 0 24 24" fill="none" xmlns="http://www.w3.org/2000/svg">
<path fill-rule="evenodd" clip-rule="evenodd" d="M8.40888 3.94112C7.73721 3.44599 7.2849 3.3342 7.0422 3.38157C6.04095 3.57697 5.44743 3.96674 4.6433 4.77085C3.54569 5.86845 3.01312 6.68802 3.24507 7.93064C3.51213 9.36131 4.81683 11.5448 8.41285 15.1409C12.0086 18.7367 14.2054 20.0551 15.644 20.3278C16.3107 20.4541 16.8185 20.3553 17.2741 20.1309C17.7612 19.891 18.2301 19.4872 18.7681 18.9258C19.2451 18.4279 19.5347 18.0805 19.7372 17.7386C19.9302 17.4128 20.067 17.0527 20.1727 16.5119C20.2201 16.2692 20.1084 15.8168 19.6131 15.145C19.1512 14.5185 18.4996 13.8963 17.8972 13.3884C17.4997 13.0532 16.8847 13.0319 16.3879 13.4038L14.8696 14.5404C13.5001 15.5656 11.5863 15.4188 10.378 14.2105L9.34327 13.1757C8.13496 11.9674 7.9881 10.0537 9.01334 8.68414L10.1499 7.16587C10.5218 6.66905 10.5005 6.05405 10.1653 5.65654C9.6574 5.05428 9.03526 4.40286 8.40888 3.94112ZM9.59561 2.33125C10.405 2.92793 11.144 3.71481 11.6942 4.36723C12.697 5.55645 12.6152 7.20995 11.751 8.36443L10.6144 9.88271C10.191 10.4484 10.2457 11.2497 10.7575 11.7615L11.7922 12.7963C12.304 13.308 13.1054 13.3628 13.671 12.9393L15.1894 11.8027C16.3438 10.9385 17.9972 10.8567 19.1865 11.8594C19.839 12.4096 20.6261 13.1487 21.2229 13.9582C21.7863 14.7225 22.3533 15.7809 22.1356 16.8953C21.9958 17.6109 21.7906 18.1965 21.4579 18.758C21.1347 19.3034 20.7149 19.7848 20.2122 20.3095C19.6295 20.9176 18.9652 21.5274 18.1578 21.9251C17.3188 22.3383 16.3707 22.5011 15.2716 22.2928C13.1786 21.8961 10.6037 20.1602 6.99863 16.5551C3.39382 12.9503 1.66894 10.3865 1.27903 8.29763C0.854018 6.02074 2.03709 4.54862 3.2291 3.35663C4.21369 2.37205 5.1473 1.71364 6.65912 1.4186C7.77324 1.20117 8.83146 1.76795 9.59561 2.33125Z" fill="#0F1729"/>
</svg>
