<svg width="24" height="24" viewBox="0 0 24 24" fill="none" xmlns="http://www.w3.org/2000/svg">
<path fill-rule="evenodd" clip-rule="evenodd" d="M12 2C12.5523 2 13 2.44772 13 3L13 11C13 11.5523 12.5523 12 12 12C11.4477 12 11 11.5523 11 11L11 3C11 2.44772 11.4477 2 12 2ZM7.10815 6.29277C7.49874 6.68323 7.49885 7.3164 7.10839 7.70699C5.80862 9.0072 5 10.821 5 12.8333C5 16.8109 8.15335 20 12 20C15.8467 20 19 16.8109 19 12.8333C19 10.821 18.1914 9.0072 16.8916 7.70699C16.5012 7.3164 16.5013 6.68323 16.8918 6.29277C17.2824 5.90232 17.9156 5.90242 18.3061 6.29301C19.9698 7.95734 21 10.2754 21 12.8333C21 17.8764 16.9899 22 12 22C7.0101 22 3 17.8764 3 12.8333C3 10.2754 4.03017 7.95734 5.69394 6.29301C6.0844 5.90242 6.71756 5.90232 7.10815 6.29277Z" fill="#0F1729"/>
</svg>
