<svg width="24" height="24" viewBox="0 0 24 24" fill="none" xmlns="http://www.w3.org/2000/svg">
<path fill-rule="evenodd" clip-rule="evenodd" d="M2.05945 10.8927C2.59729 5.90964 6.72918 2 11.7876 2C14.6474 2 17.2149 3.25301 19 5.23997V4C19 3.44772 19.4478 3 20 3C20.5523 3 21 3.44772 21 4V8C21 8.26522 20.8947 8.51957 20.7071 8.70711C20.5196 8.89464 20.2653 9 20 9L16 9C15.4478 9 15 8.55228 15 8C15 7.44771 15.4478 7 16 7L17.8671 7C16.4352 5.16504 14.2403 4 11.7876 4C7.7996 4 4.48146 7.09046 4.0479 11.1073C3.98863 11.6564 3.49546 12.0535 2.94636 11.9942C2.39727 11.935 2.00018 11.4418 2.05945 10.8927ZM21.0538 12.0058C21.6029 12.065 21.9999 12.5582 21.9407 13.1073C21.4028 18.0904 17.2709 22 12.2125 22C9.35268 22 6.78522 20.747 5.00004 18.76V20C5.00004 20.5523 4.55233 21 4.00004 21C3.44776 21 3.00004 20.5523 3.00004 20L3.00004 16C3.00004 15.7348 3.1054 15.4804 3.29293 15.2929C3.48047 15.1054 3.73482 15 4.00004 15L8.00004 15C8.55233 15 9.00004 15.4477 9.00004 16C9.00004 16.5523 8.55233 17 8.00004 17H6.13303C7.56491 18.835 9.75981 20 12.2125 20C16.2005 20 19.5187 16.9095 19.9522 12.8927C20.0115 12.3436 20.5047 11.9465 21.0538 12.0058Z" fill="#0F1729"/>
</svg>
