<svg width="24" height="24" viewBox="0 0 24 24" fill="none" xmlns="http://www.w3.org/2000/svg">
<path fill-rule="evenodd" clip-rule="evenodd" d="M12.0107 2.00006C12.2784 1.99707 12.5377 2.10171 12.7289 2.2929L21.7071 11.2711C21.8983 11.4623 22.0029 11.7216 21.9999 11.9893C22 11.9928 22 11.9964 22 12C22 17.5229 17.5228 22 12 22C6.47715 22 2 17.5229 2 12C2 6.47716 6.47715 2.00001 12 2.00001C12.0036 2.00001 12.0071 2.00003 12.0107 2.00006ZM10.3706 4.16607C6.73365 4.91864 4 8.14009 4 12C4 16.4183 7.58172 20 12 20C15.8599 20 19.0814 17.2664 19.8339 13.6295C19.0989 13.87 18.3142 14 17.5 14C13.3579 14 10 10.6421 10 6.50001C10 5.68583 10.13 4.90111 10.3706 4.16607ZM19.3049 11.6973L12.3027 4.69511C12.1066 5.25998 12 5.86703 12 6.50001C12 9.53757 14.4624 12 17.5 12C18.133 12 18.74 11.8934 19.3049 11.6973Z" fill="#0F1729"/>
</svg>
