<svg width="24" height="24" viewBox="0 0 24 24" fill="none" xmlns="http://www.w3.org/2000/svg">
<path d="M8.00005 8.99999C8.55233 8.99999 9.00005 8.55227 9.00005 7.99999C9.00005 7.4477 8.55233 6.99999 8.00005 6.99999C7.44776 6.99999 7.00005 7.4477 7.00005 7.99999C7.00005 8.55227 7.44776 8.99999 8.00005 8.99999Z" fill="#0F1729"/>
<path fill-rule="evenodd" clip-rule="evenodd" d="M12.1635 2.05863C11.6504 1.96198 11.1228 2.00286 10.4302 2.05653L7.49854 2.28208C6.80865 2.33514 6.23449 2.3793 5.76481 2.45219C5.27385 2.52838 4.82331 2.64557 4.39819 2.88283C3.76237 3.23767 3.23773 3.76231 2.88289 4.39813C2.64563 4.82325 2.52844 5.27379 2.45225 5.76474C2.37936 6.23443 2.3352 6.80859 2.28214 7.49848L2.05659 10.4301C2.00292 11.1228 1.96204 11.6504 2.05869 12.1634C2.14036 12.597 2.2945 13.0137 2.51464 13.396C2.77515 13.8484 3.14954 14.2224 3.64107 14.7134L8.65467 19.7269C9.16802 20.2403 9.59268 20.665 9.96589 20.9856C10.3535 21.3187 10.7457 21.5937 11.2112 21.7632C12.0788 22.0789 13.0298 22.0789 13.8974 21.7632C14.3629 21.5937 14.7551 21.3187 15.1427 20.9856C15.5159 20.665 15.9406 20.2403 16.4539 19.7269L19.727 16.4539C20.2403 15.9405 20.665 15.5158 20.9857 15.1426C21.3187 14.755 21.5938 14.3628 21.7632 13.8973C22.079 13.0298 22.079 12.0787 21.7632 11.2112C21.5938 10.7457 21.3187 10.3535 20.9857 9.96583C20.665 9.59261 20.2403 9.16793 19.7269 8.65456L14.7134 3.64101C14.2225 3.14948 13.8485 2.77509 13.396 2.51458C13.0137 2.29444 12.597 2.1403 12.1635 2.05863ZM10.4701 4.05941C11.327 3.99349 11.5732 3.98262 11.7933 4.02406C12.006 4.06413 12.2105 4.13977 12.3981 4.24779C12.5921 4.35951 12.772 4.52801 13.3797 5.13576L18.2859 10.042C18.8329 10.5889 19.2033 10.9603 19.4687 11.2692C19.7274 11.5702 19.8313 11.751 19.8838 11.8952C20.0388 12.3209 20.0388 12.7876 19.8838 13.2132C19.8313 13.3575 19.7274 13.5382 19.4687 13.8392C19.2033 14.1482 18.8329 14.5195 18.2859 15.0665L15.0666 18.2859C14.5196 18.8328 14.1482 19.2032 13.8393 19.4687C13.5383 19.7273 13.3575 19.8313 13.2133 19.8838C12.7876 20.0387 12.321 20.0387 11.8953 19.8838C11.751 19.8313 11.5703 19.7273 11.2693 19.4687C10.9603 19.2032 10.589 18.8328 10.042 18.2859L5.13583 13.3796C4.52807 12.7719 4.35957 12.592 4.24785 12.398C4.13983 12.2104 4.0642 12.0059 4.02412 11.7932C3.98268 11.5732 3.99356 11.327 4.05948 10.47L4.27333 7.68984C4.33007 6.95231 4.36897 6.45564 4.42859 6.07145C4.48624 5.69994 4.55341 5.50882 4.62932 5.37279C4.80344 5.06081 5.06087 4.80338 5.37286 4.62926C5.50888 4.55335 5.7 4.48618 6.07151 4.42853C6.45571 4.36891 6.95237 4.33001 7.6899 4.27327L10.4701 4.05941Z" fill="#0F1729"/>
</svg>
