<svg width="24" height="24" viewBox="0 0 24 24" fill="none" xmlns="http://www.w3.org/2000/svg">
<path fill-rule="evenodd" clip-rule="evenodd" d="M12 3C12.2653 3 12.5196 3.10536 12.7071 3.29289L16.7071 7.29289C17.0977 7.68342 17.0977 8.31658 16.7071 8.70711C16.3166 9.09763 15.6835 9.09763 15.2929 8.70711L13 6.41421L13 15C13 15.5523 12.5523 16 12 16C11.4478 16 11 15.5523 11 15L11 6.41421L8.70714 8.70711C8.31662 9.09763 7.68345 9.09763 7.29293 8.70711C6.90241 8.31658 6.90241 7.68342 7.29293 7.29289L11.2929 3.29289C11.4805 3.10536 11.7348 3 12 3ZM4.00004 14C4.55232 14 5.00004 14.4477 5.00004 15C5.00004 15.9772 5.00488 16.3198 5.05768 16.5853C5.2944 17.7753 6.22469 18.7056 7.41477 18.9424C7.68021 18.9952 8.02279 19 9.00004 19H15C15.9773 19 16.3199 18.9952 16.5853 18.9424C17.7754 18.7056 18.7057 17.7753 18.9424 16.5853C18.9952 16.3198 19 15.9772 19 15C19 14.4477 19.4478 14 20 14C20.5523 14 21 14.4477 21 15C21 15.0392 21 15.0777 21.0001 15.1157C21.0003 15.9334 21.0004 16.4906 20.904 16.9755C20.5094 18.9589 18.9589 20.5094 16.9755 20.9039C16.4907 21.0004 15.9334 21.0002 15.1158 21C15.0778 21 15.0392 21 15 21H9.00004C8.96087 21 8.92228 21 8.88426 21C8.06667 21.0002 7.50938 21.0004 7.02459 20.9039C5.04113 20.5094 3.49064 18.9589 3.09611 16.9755C2.99968 16.4906 2.99982 15.9334 3.00002 15.1158C3.00003 15.0777 3.00004 15.0392 3.00004 15C3.00004 14.4477 3.44775 14 4.00004 14Z" fill="#0F1729"/>
</svg>
