<svg width="24" height="24" viewBox="0 0 24 24" fill="none" xmlns="http://www.w3.org/2000/svg">
<path d="M9 11C9.55228 11 10 10.5523 10 10C10 9.44772 9.55228 9 9 9C8.44772 9 8 9.44772 8 10C8 10.5523 8.44772 11 9 11Z" fill="#0F1729"/>
<path d="M16 10C16 10.5523 15.5523 11 15 11C14.4477 11 14 10.5523 14 10C14 9.44772 14.4477 9 15 9C15.5523 9 16 9.44772 16 10Z" fill="#0F1729"/>
<path fill-rule="evenodd" clip-rule="evenodd" d="M12 2C6.47715 2 2 6.47715 2 12C2 17.5228 6.47715 22 12 22C17.5228 22 22 17.5228 22 12C22 6.47715 17.5228 2 12 2ZM4 12C4 7.58172 7.58172 4 12 4C16.4183 4 20 7.58172 20 12C20 16.4183 16.4183 20 12 20C7.58172 20 4 16.4183 4 12Z" fill="#0F1729"/>
<path d="M9.77332 16.884C9.42674 17.3069 8.80344 17.3734 8.37531 17.0309C7.94404 16.6859 7.87473 16.0558 8.21974 15.6245L8.22037 15.6238L8.22171 15.6221L8.22469 15.6184L8.23186 15.6097L8.25103 15.5868C8.26596 15.5693 8.28523 15.5474 8.30885 15.5215C8.35604 15.4699 8.4209 15.4026 8.50356 15.3252C8.66848 15.1705 8.90695 14.9727 9.22 14.777C9.85005 14.3832 10.7812 14 12 14C13.2188 14 14.1499 14.3832 14.78 14.777C15.093 14.9727 15.3315 15.1705 15.4964 15.3252C15.5791 15.4026 15.644 15.4699 15.6912 15.5215C15.7148 15.5474 15.734 15.5693 15.749 15.5868L15.7681 15.6097L15.7753 15.6184L15.7783 15.6221L15.7796 15.6238L15.7809 15.6253C16.1259 16.0566 16.056 16.6859 15.6247 17.0309C15.1966 17.3734 14.5733 17.3069 14.2267 16.884C14.225 16.882 14.2211 16.8776 14.2151 16.8711C14.1998 16.8543 14.1709 16.8239 14.1286 16.7842C14.0435 16.7045 13.907 16.5898 13.72 16.473C13.3501 16.2418 12.7812 16 12 16C11.2188 16 10.6499 16.2418 10.28 16.473C10.093 16.5898 9.95652 16.7045 9.87144 16.7842C9.8291 16.8239 9.80021 16.8543 9.7849 16.8711C9.77889 16.8776 9.77503 16.882 9.77332 16.884Z" fill="#0F1729"/>
</svg>
