<svg width="24" height="24" viewBox="0 0 24 24" fill="none" xmlns="http://www.w3.org/2000/svg">
<path fill-rule="evenodd" clip-rule="evenodd" d="M9.99998 8C9.99998 5.23858 12.2386 3 15 3C17.7614 3 20 5.23858 20 8C20 10.7614 17.7614 13 15 13C12.2386 13 9.99998 10.7614 9.99998 8ZM15 5C13.3431 5 12 6.34315 12 8C12 9.65685 13.3431 11 15 11C16.6568 11 18 9.65685 18 8C18 6.34315 16.6568 5 15 5Z" fill="#0F1729"/>
<path d="M7.82841 9.17157C8.21893 9.56209 8.21893 10.1953 7.82841 10.5858L6.4142 12L7.82841 13.4142C8.21893 13.8047 8.21893 14.4379 7.82841 14.8284C7.43789 15.2189 6.80472 15.2189 6.4142 14.8284L4.99998 13.4142L3.58577 14.8284C3.19524 15.2189 2.56208 15.2189 2.17156 14.8284C1.78103 14.4379 1.78103 13.8047 2.17156 13.4142L3.58577 12L2.17156 10.5858C1.78103 10.1953 1.78103 9.56209 2.17156 9.17157C2.56208 8.78104 3.19524 8.78104 3.58577 9.17157L4.99998 10.5858L6.4142 9.17157C6.80472 8.78104 7.43789 8.78104 7.82841 9.17157Z" fill="#0F1729"/>
<path fill-rule="evenodd" clip-rule="evenodd" d="M15 14C13.0061 14 11.0954 14.2542 9.6444 14.8986C8.16515 15.5554 6.99998 16.7142 6.99998 18.5C6.99998 18.9667 7.08522 19.4978 7.4027 20.0043C7.72015 20.5106 8.20784 20.8939 8.83779 21.1789C10.0469 21.7259 11.9839 22 15 22C18.0161 22 19.9531 21.7259 21.1622 21.1789C21.7921 20.8939 22.2798 20.5106 22.5973 20.0043C22.9147 19.4978 23 18.9667 23 18.5C23 16.7142 21.8348 15.5554 20.3556 14.8986C18.9045 14.2542 16.9938 14 15 14ZM8.99998 18.5C8.99998 17.7858 9.40182 17.1946 10.4561 16.7264C11.5386 16.2458 13.1278 16 15 16C16.8721 16 18.4614 16.2458 19.5439 16.7264C20.5981 17.1946 21 17.7858 21 18.5C21 18.7236 20.9602 18.8502 20.9027 18.942C20.8451 19.0338 20.7078 19.1893 20.3378 19.3567C19.5469 19.7145 17.9839 20 15 20C12.0161 20 10.4531 19.7145 9.66217 19.3567C9.29212 19.1893 9.15482 19.0338 9.09726 18.942C9.03974 18.8502 8.99998 18.7236 8.99998 18.5Z" fill="#0F1729"/>
</svg>
